<?xml version="1.0" standalone="no"?>
<!DOCTYPE svg >
<svg version="1.0" xmlns="http://www.w3.org/2000/svg"
 width="237.000000pt" height="300.000000pt" viewBox="0 0 237.000000 300.000000"
 >

<g transform="translate(0.000000,300.000000) scale(0.100000,-0.100000)"
fill="#FFFFFF" stroke="none" stroke-width="0.5">

<path d="M1820 2945 c-14 -6 -107 -43 -208 -81 l-184 -69 4 -205 c4 -193 6
-209 31 -272 66 -170 159 -271 331 -362 l68 -36 80 42 c99 53 185 125 243 203
85 114 115 237 115 473 l0 157 -93 34 c-50 18 -148 55 -217 82 -134 53 -133
53 -170 34z m218 -129 c92 -36 175 -68 185 -72 16 -6 18 -20 16 -158 -2 -189
-21 -269 -88 -367 -54 -80 -120 -136 -217 -186 l-71 -37 -69 35 c-100 49 -206
153 -249 243 -47 100 -57 159 -53 325 l3 144 169 63 c92 35 171 65 174 68 11
12 36 4 200 -58z"/>
<path d="M1703 2771 c-84 -32 -156 -60 -159 -64 -13 -13 -3 -287 12 -339 36
-120 136 -233 267 -299 l38 -20 67 36 c72 37 147 104 191 170 52 75 64 127 69
297 l4 156 -23 7 c-13 4 -86 32 -162 61 -76 30 -141 54 -145 53 -4 0 -76 -26
-159 -58z m253 -12 c137 -48 191 -75 199 -97 8 -29 -3 -227 -16 -276 -29 -106
-114 -209 -219 -265 l-57 -31 -53 28 c-62 31 -159 121 -185 171 -35 69 -53
155 -54 268 -2 87 1 112 13 122 16 14 253 109 273 110 6 1 51 -13 99 -30z"/>
<path d="M600 2478 c-1 -231 -3 -244 -56 -279 -26 -17 -48 -19 -241 -19 l-213
0 0 -945 0 -945 840 0 840 0 0 813 0 812 -58 33 c-103 59 -217 179 -258 272
-14 30 -29 63 -35 72 -18 34 -39 192 -39 294 l0 104 -390 0 -390 0 0 -212z
m706 173 l32 -1 7 -117 c9 -143 10 -149 41 -241 44 -133 130 -242 271 -348
l71 -54 6 -62 c7 -83 3 -1485 -5 -1492 -3 -4 -363 -6 -799 -6 -627 0 -795 2
-802 12 -4 7 -8 412 -8 900 0 841 1 888 18 897 10 5 98 9 197 8 190 -1 216 4
257 50 39 43 46 83 48 263 0 96 4 178 8 182 10 10 487 17 658 9z"/>
<path d="M232 1895 c-57 -25 -64 -57 -60 -296 l3 -209 28 -27 27 -28 208 -3
c194 -3 209 -2 240 18 43 27 52 54 52 164 0 79 -3 97 -21 120 -25 31 -49 33
-75 5 -14 -16 -20 -41 -24 -103 l-5 -81 -155 0 -155 0 -3 98 -3 99 57 -61 c60
-65 91 -80 129 -63 20 9 170 189 228 272 24 35 21 67 -8 86 -20 13 -31 14 -49
6 -21 -9 -109 -110 -164 -189 -27 -38 -40 -41 -72 -13 -33 29 -58 34 -85 16
-34 -22 -35 -21 -35 28 0 53 6 56 104 56 63 0 75 3 94 23 27 29 28 49 2 72
-28 26 -208 32 -258 10z m246 -47 c-3 -22 -7 -23 -116 -26 l-112 -3 2 -202 3
-202 198 -3 197 -2 0 110 c0 103 1 110 20 110 19 0 20 -7 20 -118 0 -78 -4
-122 -12 -130 -9 -9 -74 -12 -229 -12 -189 0 -218 2 -230 17 -19 22 -18 445 1
468 10 12 38 15 137 15 123 0 124 0 121 -22z m215 8 c3 -8 -29 -56 -77 -114
-45 -54 -97 -120 -116 -145 -19 -26 -42 -47 -50 -47 -22 0 -134 115 -126 129
14 22 44 10 80 -29 36 -40 52 -48 58 -30 2 5 46 64 98 129 90 114 121 139 133
107z"/>
<path d="M899 1862 c-25 -8 -49 -35 -49 -54 0 -10 9 -27 20 -38 19 -19 33 -20
203 -20 l184 0 24 26 c22 23 23 27 8 52 -10 19 -26 29 -54 34 -41 7 -312 7
-336 0z m369 -54 c-3 -23 -4 -23 -193 -23 -189 0 -190 0 -193 23 l-3 22 196 0
196 0 -3 -22z"/>
<path d="M871 1606 c-29 -31 -23 -68 14 -84 18 -8 114 -12 311 -12 l285 0 24
24 c27 27 24 58 -8 81 -18 12 -73 15 -312 15 l-292 0 -22 -24z m622 -16 c11 0
8 -40 -3 -40 -211 -5 -605 1 -608 10 -12 34 2 35 304 33 165 -2 302 -3 307 -3z"/>
<path d="M208 1231 l-33 -29 0 -227 0 -227 33 -29 34 -30 214 3 214 3 27 27
c25 25 27 35 31 122 2 53 2 107 -2 121 -9 35 -49 60 -74 46 -28 -15 -35 -36
-41 -121 l-6 -75 -65 -6 c-36 -4 -105 -4 -155 0 -89 6 -90 6 -95 35 -3 15 -3
58 -2 93 l4 66 61 -60 c70 -68 88 -77 120 -62 22 11 167 183 220 261 34 51 34
71 0 97 -35 28 -46 21 -151 -105 -46 -54 -89 -100 -97 -102 -7 -2 -30 8 -50
22 l-38 26 -34 -21 -34 -21 3 48 3 49 88 6 c101 7 135 27 124 71 -10 37 -47
48 -162 48 -102 0 -106 -1 -137 -29z m270 -28 c3 -23 2 -23 -112 -23 l-116 0
0 -205 0 -205 200 0 200 0 0 105 c0 86 3 107 15 112 9 3 18 3 22 0 3 -3 5 -57
4 -119 -2 -156 11 -148 -241 -148 -267 0 -245 -24 -243 256 2 271 -8 256 157
252 107 -3 111 -4 114 -25z m211 13 c9 -10 -14 -45 -110 -165 -67 -83 -126
-150 -130 -149 -4 2 -35 30 -69 62 -56 54 -60 60 -46 75 15 14 20 11 64 -32
l48 -48 107 136 c59 74 111 135 116 135 5 0 14 -6 20 -14z"/>
<path d="M866 1198 c-23 -32 -20 -55 8 -73 20 -13 56 -16 200 -16 182 0 210 6
222 44 4 12 -3 28 -17 43 -22 24 -25 24 -210 24 -183 0 -188 -1 -203 -22z
m399 -33 c0 -19 -8 -20 -192 -23 -182 -2 -193 -1 -193 16 0 10 3 22 7 26 4 3
90 5 192 4 178 -3 186 -4 186 -23z"/>
<path d="M915 982 c-60 -7 -83 -54 -45 -92 20 -20 31 -20 322 -18 l301 3 21
28 20 27 -24 25 -25 24 -270 3 c-148 2 -283 1 -300 0z m580 -57 c0 -19 -8 -20
-299 -23 -302 -2 -332 1 -319 34 4 12 52 14 312 12 298 -3 306 -3 306 -23z"/>
<path d="M340 2445 l-216 -215 192 0 c168 0 194 2 212 18 20 16 21 30 24 215
2 108 3 197 3 197 0 0 -97 -97 -215 -215z m180 -18 c0 -167 5 -162 -153 -166
-87 -1 -127 1 -132 10 -8 13 251 279 272 279 10 0 13 -31 13 -123z"/>
<path d="M1916 1893 c-40 -20 -54 -23 -68 -14 -10 6 -21 11 -25 11 -5 0 -7
-365 -5 -811 2 -608 -1 -815 -9 -826 -10 -12 -128 -13 -771 -11 l-758 3 0 -72
0 -73 848 0 847 0 0 910 c0 501 -2 910 -5 910 -3 -1 -27 -13 -54 -27z m24
-897 c0 -769 -2 -854 -16 -860 -24 -9 -1577 -7 -1592 3 -8 5 -12 21 -10 37 l3
29 742 5 c695 5 743 6 760 23 17 17 18 67 23 809 l5 792 25 7 c14 4 33 7 43 8
16 1 17 -46 17 -853z"/>
</g>
</svg>
